<svg id="discover_outline" data-name="discover outline" xmlns="http://www.w3.org/2000/svg" xmlns:xlink="http://www.w3.org/1999/xlink" viewBox="0 0 400 250"><defs><style>.cls-1,.cls-3,.cls-5,.cls-9{fill:none;}.cls-12,.cls-2{fill:#ececec;}.cls-12,.cls-3{stroke:#d1d2d1;}.cls-12,.cls-3,.cls-5,.cls-9{stroke-miterlimit:10;}.cls-4{fill:#bfe6ef;}.cls-5,.cls-9{stroke:#484848;}.cls-6{fill:#c4cfd5;}.cls-7{fill:#e8ecee;}.cls-8{fill:#8a9fab;}.cls-9{stroke-linecap:round;}.cls-10{clip-path:url(#clip-path);}.cls-11{fill:#f6f6f6;}</style><clipPath id="clip-path"><polygon class="cls-1" points="177.92 185.5 178.05 187.35 177.94 189.2 177.71 191.04 177.34 192.85 176.99 194.66 176.62 196.47 176 198.21 175.66 200.04 174.96 201.76 174.11 203.41 173.41 205.12 172.4 206.67 171.66 208.38 170.53 209.85 169.59 211.45 168.26 212.76 167.12 214.21 165.9 215.6 164.5 216.8 163.18 218.09 161.76 219.26 160.35 220.46 158.93 221.65 157.37 222.65 155.77 223.57 154.13 224.43 152.43 225.18 150.73 225.89 148.98 226.48 147.22 227.03 145.48 227.68 143.67 228.05 141.84 228.26 140.01 228.52 138.19 228.87 136.35 228.93 134.5 228.99 132.66 228.86 130.81 228.81 128.96 228.73 127.14 228.39 125.33 228.01 123.54 227.58 121.76 227.09 119.98 226.59 118.25 225.93 116.61 225.07 114.85 224.46 113.28 223.48 111.69 222.55 110.14 221.54 108.57 220.55 107.18 219.33 105.7 218.22 104.37 216.94 103.05 215.64 101.77 214.3 100.61 212.86 99.47 211.41 98.43 209.88 97.53 208.26 96.51 206.72 95.78 205.02 94.83 203.43 94.19 201.7 93.51 199.98 92.95 198.22 92.54 196.43 91.85 194.69 91.53 192.87 91.48 191.01 91.1 189.2 91.07 187.35 90.92 185.5 91 183.65 91.24 181.82 91.44 179.98 91.73 178.16 92.08 176.35 92.4 174.54 92.92 172.76 93.55 171.03 94.21 169.31 94.79 167.55 95.6 165.88 96.48 164.26 97.53 162.73 98.34 161.06 99.64 159.72 100.7 158.21 101.76 156.68 103.09 155.39 104.37 154.06 105.83 152.92 107.26 151.76 108.6 150.48 110.13 149.44 111.71 148.48 113.35 147.64 114.9 146.62 116.57 145.83 118.29 145.16 120.02 144.51 121.72 143.77 123.54 143.43 125.3 142.84 127.12 142.49 128.97 142.36 130.82 142.3 132.66 142.1 134.5 141.97 136.34 142.13 138.2 142.03 140.03 142.35 141.85 142.64 143.68 142.9 145.47 143.39 147.23 143.93 148.97 144.54 150.73 145.11 152.41 145.87 154.16 146.52 155.68 147.59 157.26 148.54 158.88 149.44 160.39 150.5 161.84 151.64 163.22 152.88 164.58 154.11 165.82 155.48 167.05 156.85 168.3 158.21 169.55 159.58 170.62 161.09 171.52 162.71 172.36 164.35 173.33 165.92 174.28 167.52 174.78 169.31 175.59 170.98 176.06 172.77 176.63 174.53 176.96 176.35 177.44 178.14 177.77 179.96 177.84 181.81 177.99 183.65 177.92 185.5"/></clipPath></defs><title>empty_state_illustration</title><path class="cls-2" d="M325.43,186H285.14a8.5,8.5,0,1,1,0-17H304a8.5,8.5,0,1,0,0-17h-1.71a8.5,8.5,0,1,1,0-17h14.57a8.5,8.5,0,1,0,0-17H253.43c-4.71,0-8.57-4.29-8.57-9s3.86-9,8.57-9h40.29a8.5,8.5,0,1,0,0-17H282.57a8.5,8.5,0,1,1,0-17h4.29a8.5,8.5,0,1,0,0-17H93.14a8.5,8.5,0,1,0,0,17h40.29a8.5,8.5,0,1,1,0,17H84.57a8.5,8.5,0,1,0,0,17h58.29c4.71,0,8.57,4.29,8.57,9s-3.86,9-8.57,9h-2.57a8.5,8.5,0,1,0,0,17h52.29a8.5,8.5,0,1,1,0,17H152.29a8.5,8.5,0,1,0,0,17h42a8.5,8.5,0,1,1,0,17h-42a8.5,8.5,0,1,0,0,17H325.43A8.5,8.5,0,1,0,325.43,186Z"/><polyline class="cls-3" points="201.89 181.02 200.87 182.57 199.37 183.67 197.88 184.75 196.15 185.43 194.29 185.58 192.46 185.63 190.64 185.66 188.82 185.5 187 185.5 185.17 185.5 183.34 185.5 181.52 185.66 179.7 185.46 177.87 185.67 176.05 185.63 174.22 185.51 172.4 185.52 170.57 185.42 168.74 185.61 166.92 185.5 165.09 185.41 163.27 185.58 161.44 185.58 159.61 185.37 157.78 185.56 155.95 185.39 154.12 185.56 152.29 185.46 150.38 185.67 148.61 186.41 147.02 187.43 145.64 188.72 144.58 190.31 143.81 192.07 143.68 194 143.98 195.89 144.52 197.73 145.57 199.34 146.97 200.64 148.6 201.61 150.4 202.25 152.29 202.54 154.16 202.51 156.04 202.56 157.91 202.58 159.79 202.44 161.66 202.4 163.54 202.38 165.42 202.56 167.3 202.6 169.18 202.56 171.05 202.59 172.93 202.59 174.81 202.4 176.69 202.43 178.56 202.44 180.44 202.57 182.32 202.64 184.2 202.47 186.08 202.63 187.97 202.63 189.85 202.57 190 202.59 191.85 202.52 193.7 202.37 195.56 202.61 197.41 202.38 199.26 202.63 201.11 202.58 202.96 202.6 204.81 202.35 206.66 202.48 208.51 202.53 210.36 202.41 212.22 202.55 214.07 202.4 215.92 202.43 217.77 202.61 219.62 202.51 221.47 202.56 223.33 202.44 225.18 202.61 227.04 202.57 228.89 202.52 230.74 202.65 232.59 202.45 234.45 202.35 236.31 202.63 238.17 202.55 240.03 202.41 241.89 202.5 243.75 202.49 245.61 202.5 247.47 202.59 249.32 202.38 251.18 202.56 253.04 202.46 254.89 202.4 256.75 202.36 258.61 202.42 260.46 202.45 262.32 202.39 264.17 202.65 266.03 202.56 267.88 202.51 269.74 202.43 271.6 202.59 273.45 202.64 275.31 202.45 277.16 202.44 279.01 202.63 280.86 202.6 281 202.61 282.85 202.49 284.7 202.51 286.55 202.63 288.39 202.43 290.24 202.43 292.09 202.52 293.94 202.37 295.79 202.36 297.64 202.64 299.49 202.55 301.34 202.61 303.19 202.61 305.04 202.54 306.89 202.45 308.75 202.43 310.59 202.44 312.45 202.57 314.3 202.64 316.15 202.4 318 202.45 319.85 202.41 321.71 202.48 323.57 202.59 325.43 202.58 327.3 202.17 329.16 201.71 330.68 200.55 332.01 199.22 333.14 197.7 333.65 195.87 333.86 194 333.82 192.09 333.28 190.23 332.2 188.62 330.77 187.33 329.15 186.3 327.35 185.63 325.43 185.38 323.66 185.4 321.9 185.57 320.14 185.53 318.37 185.55 316.61 185.57 314.85 185.42 313.08 185.44 311.31 185.5 309.54 185.41 307.77 185.53 306 185.56"/><polyline class="cls-3" points="149 114.67 147.66 115.77 146.18 116.64 144.58 117.3 142.86 117.57 140.29 117.58 138.4 117.76 136.63 118.44 134.95 119.33 133.6 120.69 132.7 122.36 131.92 124.1 131.66 126 131.97 127.89 132.45 129.76 133.64 131.28 134.99 132.61 136.57 133.68 138.36 134.39 140.29 134.51 142.11 134.57 143.94 134.6 145.77 134.49 147.6 134.38 149.43 134.55 151.25 134.36 153.08 134.44 154.91 134.48 156.75 134.65 158.58 134.49 160.41 134.59 162.24 134.37 164.07 134.54 165.9 134.52 167.73 134.48 169.56 134.35 171.39 134.58 173.23 134.44 175.06 134.58 176.89 134.39 178.73 134.6 180.57 134.57 182.28 134.61 183.99 134.53 185.71 134.59 187.42 134.53 189.13 134.39 190.85 134.4 192.57 134.44 194.49 134.62 196.26 135.38 197.94 136.3 199.19 137.74 200.24 139.32 200.83 141.12 201.08 143 200.85 144.88 200.24 146.68 199.21 148.27 197.91 149.67 196.26 150.62 194.47 151.28 192.57 151.36 190.86 151.62 189.15 151.36 187.44 151.38 185.72 151.57 184.01 151.54 182.29 151.39 180.57 151.5 178.69 151.49 176.8 151.63 174.92 151.37 173.04 151.58 171.15 151.62 169.27 151.45 167.38 151.49 165.5 151.48 163.61 151.6 161.73 151.46 159.84 151.36 157.96 151.51 156.07 151.45 154.18 151.38 152.29 151.53 150.36 151.58 148.54 152.26 146.98 153.38 145.58 154.68 144.62 156.32 144.01 158.12 143.71 160 143.85 161.92 144.44 163.76 145.49 165.4 147.02 166.57 148.62 167.59 150.38 168.31 152.29 168.56 154.1 168.37 155.91 168.4 157.73 168.49 159.54 168.47 161.36 168.39 163.18 168.41 165 168.59"/><polyline class="cls-3" points="147 48.6 145.14 48.65 143.29 48.62 141.44 48.42 139.59 48.64 137.74 48.56 135.88 48.43 134.03 48.35 132.17 48.64 130.32 48.46 128.46 48.51 126.61 48.42 124.75 48.4 122.89 48.56 121.04 48.43 119.18 48.52 117.32 48.59 115.46 48.44 113.61 48.58 111.75 48.36 109.89 48.59 108.03 48.61 106.17 48.37 104.32 48.42 102.46 48.45 100.6 48.54 98.74 48.56 96.88 48.6 95.01 48.55 93.14 48.49 91.24 48.71 89.43 49.32 87.83 50.37 86.45 51.69 85.37 53.27 84.75 55.09 84.68 57 84.64 58.93 85.38 60.72 86.44 62.32 87.88 63.57 89.43 64.68 91.24 65.28 93.14 65.44 94.97 65.53 96.81 65.52 98.64 65.39 100.48 65.55 102.31 65.43 104.15 65.57 105.98 65.6 107.82 65.44 109.66 65.44 111.49 65.38 113.33 65.36 115.17 65.5 117 65.43 118.83 65.57 120.67 65.55 122.51 65.35 124.35 65.5 126.18 65.53 128.03 65.36 129.87 65.46 131.71 65.37 133.43 65.49 135.33 65.69 137.18 66.25 138.75 67.36 140.15 68.66 141.27 70.24 141.87 72.08 141.97 74 141.74 75.89 141.15 77.7 140.03 79.25 138.74 80.63 137.08 81.54 135.35 82.39 133.43 82.46 131.71 82.41 129.91 82.57 128.1 82.4 126.29 82.61 124.48 82.43 122.67 82.59 120.86 82.36 119.05 82.49 117.23 82.38 115.42 82.37 113.61 82.36 111.8 82.38 109.98 82.51 108.17 82.4 106.36 82.52 104.55 82.43 102.73 82.65 100.92 82.62 99.11 82.49 97.29 82.54 95.48 82.45 93.66 82.55 91.85 82.41 90.03 82.49 88.21 82.53 86.39 82.62 84.57 82.38 82.67 82.69 80.82 83.23 79.28 84.39 77.94 85.74 76.72 87.23 76.14 89.08 76.1 91 76.25 93"/><polyline class="cls-3" points="237 48.61 235.09 48.37 233.19 48.49 231.28 48.46 229.37 48.41 227.46 48.36 225.56 48.64 223.65 48.38 221.74 48.52 219.83 48.41 217.91 48.44 216 48.6"/><polyline class="cls-3" points="312 134.48 313.62 134.53 315.24 134.54 316.86 134.36 318.77 134.32 320.51 133.54 322.11 132.55 323.56 131.32 324.7 129.76 325.28 127.92 325.39 126 325.31 124.08 324.46 122.35 323.55 120.68 322.2 119.32 320.53 118.4 318.76 117.72 316.86 117.46 315.05 117.43 313.25 117.52 311.45 117.48 309.65 117.64 307.85 117.42 306.04 117.39 304.24 117.52 302.44 117.54 300.63 117.52 298.83 117.46 297.03 117.48 295.22 117.38 293.42 117.36 291.61 117.44 289.81 117.59 288 117.59 286.19 117.47 284.38 117.36 282.57 117.48 280.75 117.64 278.93 117.4 277.11 117.57 275.29 117.45 273.47 117.52 271.65 117.43 269.83 117.56 268.02 117.62 266.19 117.49 264.38 117.53 262.55 117.42 260.73 117.38 258.91 117.44 257.08 117.41 255.26 117.49 253.43 117.37 251.49 117.22 249.7 116.47 247.98 115.51 246.74 113.96 245.77 112.28 245.19 110.42 244.91 108.5 245.18 106.58 245.59 104.64 246.83 103.1 247.99 101.51 249.65 100.44 251.47 99.68 253.43 99.35 255.25 99.5 257.07 99.48 258.89 99.59 260.71 99.55 262.53 99.54 264.35 99.4 266.17 99.54 267.98 99.51 269.81 99.43 271.63 99.59 273.45 99.41 275.27 99.48 277.09 99.57 278.92 99.62 280.74 99.46 282.57 99.57 284.43 99.39 286.28 99.37 288.13 99.47 289.99 99.46 291.85 99.4 293.71 99.64 295.62 99.3 297.36 98.54 299.07 97.69 300.47 96.37 301.37 94.67 301.95 92.87 302.3 91 302.13 89.09 301.33 87.35 300.35 85.73 299.12 84.25 297.38 83.43 295.62 82.7 293.71 82.61 291.86 82.43 290 82.56 288.15 82.63 286.29 82.48 284.43 82.41 282.57 82.59 280.67 82.3 278.88 81.62 277.24 80.66 275.83 79.35 274.87 77.69 274.22 75.9 274.12 74 274.33 72.13 274.94 70.34 275.9 68.7 277.19 67.28 278.8 66.2 280.68 65.74 282.57 65.59 284.71 65.5 286.86 65.64 288.74 65.23 290.52 64.57 292.21 63.69 293.45 62.23 294.49 60.66 295.35 58.93 295.34 57 295.25 55.09 294.45 53.36 293.57 51.67 292.28 50.23 290.54 49.38 288.76 48.69 286.86 48.38 284.99 48.42 283.13 48.54 281.27 48.37 279.4 48.43 277.54 48.48 275.67 48.56 273.81 48.58 271.94 48.53 270.08 48.55 268.21 48.54 266.35 48.63 264.48 48.61 262.62 48.37 260.75 48.42 258.87 48.39 257 48.55"/><polygon class="cls-4" points="127.57 114.82 125.9 115.26 124.34 115.99 122.76 116.67 121.07 115.79 120.28 113.55 120.92 111.83 122.55 111.3 124.18 110.74 125.76 110.08 127.5 110.81 128.26 113.06 127.57 114.82"/><polygon class="cls-5" points="127.57 114.82 125.9 115.26 124.34 115.99 122.76 116.67 121.07 115.79 120.28 113.55 120.92 111.83 122.55 111.3 124.18 110.74 125.76 110.08 127.5 110.81 128.26 113.06 127.57 114.82"/><polyline class="cls-5" points="127.06 142.03 127.8 140.32 128.68 138.68 129.65 137.1 130.54 135.46 131.38 133.8 132.48 132.29 133.26 130.59 134.03 128.9 135.08 127.35 136.01 125.74 136.77 124.04 137.62 122.38 138.63 120.81 139.57 119.21 140.31 117.49 141.24 115.88 142.31 114.33 143.01 112.59 144 111"/><polyline class="cls-5" points="144.86 111.03 145.46 112.77 145.76 114.57 146.18 116.35 146.62 118.12 146.84 119.94 147.23 121.72 147.49 123.53 147.9 125.31 148.28 127.1 148.78 128.86 149.01 130.67 149.41 132.46 149.85 134.23 150.07 136.05 150.62 137.81 150.91 139.61 151.19 141.42 151.51 143.23 152.04 144.99"/><polygon class="cls-6" points="158.09 105.83 156.44 106.56 154.73 107.14 153.04 107.74 151.34 108.34 149.69 109.06 148 109.67 146.38 110.46 144.62 110.89 142.92 111.5 141.29 112.26 139.61 112.92 137.92 113.54 136.21 114.13 134.53 114.78 132.81 115.34 131.11 115.96 129.25 116.23 127.43 115.57 126.28 113.96 125.81 112.4 125.34 110.83 125.03 108.97 125.69 107.13 127.4 106.19 129.02 105.38 130.74 104.85 132.4 104.15 134.11 103.6 135.75 102.84 137.41 102.15 139.13 101.63 140.8 100.95 142.52 100.41 144.22 99.81 145.88 99.11 147.58 98.5 149.23 97.79 150.96 97.26 152.62 96.53 154.32 95.92 156.23 95.55 157.94 96.47 159.03 98.03 159.56 99.58 160.2 101.08 160.34 102.95 159.76 104.81 158.09 105.83"/><polygon class="cls-5" points="158.09 105.83 156.44 106.56 154.73 107.14 153.04 107.74 151.34 108.34 149.69 109.06 148 109.67 146.38 110.46 144.62 110.89 142.92 111.5 141.29 112.26 139.61 112.92 137.92 113.54 136.21 114.13 134.53 114.78 132.81 115.34 131.11 115.96 129.25 116.23 127.43 115.57 126.28 113.96 125.81 112.4 125.34 110.83 125.03 108.97 125.69 107.13 127.4 106.19 129.02 105.38 130.74 104.85 132.4 104.15 134.11 103.6 135.75 102.84 137.41 102.15 139.13 101.63 140.8 100.95 142.52 100.41 144.22 99.81 145.88 99.11 147.58 98.5 149.23 97.79 150.96 97.26 152.62 96.53 154.32 95.92 156.23 95.55 157.94 96.47 159.03 98.03 159.56 99.58 160.2 101.08 160.34 102.95 159.76 104.81 158.09 105.83"/><polygon class="cls-4" points="147.9 111.91 147.41 113.57 145.96 114.5 144.28 114.9 142.65 114.24 141.7 112.8 141.59 111.14 142.13 109.6 143.4 108.48 145.08 108.37 146.73 108.81 147.69 110.24 147.9 111.91"/><polygon class="cls-5" points="147.9 111.91 147.41 113.57 145.96 114.5 144.28 114.9 142.65 114.24 141.7 112.8 141.59 111.14 142.13 109.6 143.4 108.48 145.08 108.37 146.73 108.81 147.69 110.24 147.9 111.91"/><polygon class="cls-7" points="167.04 103.67 165.36 104.18 163.74 104.79 162.11 105.39 160.5 106 158.92 106.71 157.29 107.31 155.71 107.88 155.11 106.21 154.31 104.55 153.67 102.83 153.03 101.11 152.5 99.35 151.63 97.71 151.24 95.99 152.74 95.38 154.3 94.61 155.95 94.09 157.56 93.44 159.23 92.96 160.86 92.38 162.46 91.58 163.11 93.34 163.71 95.07 164.25 96.83 165.07 98.48 165.71 100.2 166.31 101.94 167.04 103.67"/><polygon class="cls-5" points="167.04 103.67 165.36 104.18 163.74 104.79 162.11 105.39 160.5 106 158.92 106.71 157.29 107.31 155.71 107.88 155.11 106.21 154.31 104.55 153.67 102.83 153.03 101.11 152.5 99.35 151.63 97.71 151.24 95.99 152.74 95.38 154.3 94.61 155.95 94.09 157.56 93.44 159.23 92.96 160.86 92.38 162.46 91.58 163.11 93.34 163.71 95.07 164.25 96.83 165.07 98.48 165.71 100.2 166.31 101.94 167.04 103.67"/><polyline class="cls-5" points="158.93 90.94 159.62 92.59 160.27 94.28 160.84 95.98 161.75 97.56 162.38 99.25 162.83 101.01 163.67 102.62 164.26 104.33 165.02 105.97"/><polygon class="cls-8" points="130.21 142.32 128.5 142.61 126.85 142.92 125.17 143.17 124.98 141.57 126.54 141.21 128.22 141.08 129.86 140.61 130.21 142.32"/><polygon class="cls-5" points="130.21 142.32 128.5 142.61 126.85 142.92 125.17 143.17 124.98 141.57 126.54 141.21 128.22 141.08 129.86 140.61 130.21 142.32"/><polygon class="cls-8" points="153.97 146.67 152.45 145.98 150.93 145.28 149.31 144.63 150.09 143.1 151.64 143.7 153.15 144.42 154.72 145.13 153.97 146.67"/><polygon class="cls-5" points="153.97 146.67 152.45 145.98 150.93 145.28 149.31 144.63 150.09 143.1 151.64 143.7 153.15 144.42 154.72 145.13 153.97 146.67"/><polygon class="cls-9" points="224.01 203 223.4 204.4 222 204.97 220.6 204.4 219.94 203 220.54 201.54 222 201.09 223.5 201.5 224.01 203"/><circle class="cls-7" cx="134.5" cy="185.5" r="43.5"/><g class="cls-10"><polygon class="cls-6" points="173.65 203.94 171.66 204.06 169.67 203.99 167.67 204.09 165.68 203.87 163.87 203.94 162.05 204.12 160.24 204.07 158.44 203.93 156.62 204.01 154.81 203.95 153 203.99 151.19 203.89 149.38 203.97 147.56 203.89 145.74 204.11 143.93 204.09 142.13 203.68 140.71 202.51 140.43 200.72 140.85 198.91 142.14 197.53 144.03 197.26 144 196.92 145.85 197.14 147.7 197.07 149.55 197.04 151.4 196.95 153.26 197.12 155.12 196.87 156.97 197.06 158.79 196.58 160.12 195.29 160.6 193.5 160.03 191.77 158.78 190.43 156.97 190.14 155.16 190.03 153.35 190.01 151.54 189.96 149.73 189.91 147.92 189.93 146.11 189.87 144.3 189.9 142.49 189.96 140.68 189.92 138.87 190.14 137.06 189.94 135.24 190.11 133.43 189.94 131.61 190.07 129.79 189.99 127.97 190.06 126.19 190.46 124.94 191.78 124.24 193.5 124.74 195.34 126.17 196.57 127.97 197.01 130.15 197.04 132.32 197.05 133.77 197.02 133.04 197.14 134.58 197.77 135.62 199.08 135.92 200.7 135.46 202.2 134.5 203.43 133.05 204.09 133.78 204 132.32 204 130.63 203.94 128.94 203.91 127.25 203.94 125.52 204.25 124.11 205.31 123.2 206.8 122.9 208.5 123.24 210.19 124.18 211.63 125.58 212.62 127.25 212.97 129.1 213.09 130.95 213.1 132.81 213.08 134.66 213.15 136.51 212.91 138.37 213.08 140.22 213.14 142.08 212.9 143.93 212.87 145.78 212.89 147.64 212.91 149.5 212.85 151.35 212.99 153.21 213.04 155.06 212.96 156.92 212.89 158.77 212.99 160.63 213.11 162.49 212.93 164.34 212.88 166.2 213.06 168.06 213.08 169.92 212.96 171.79 212.89 173.65 212.93 175.39 212.76 176.83 211.73 177.66 210.19 178 208.5 177.57 206.85 176.79 205.31 175.28 204.47 173.65 203.94"/><polygon class="cls-6" points="183.07 171.08 181.26 170.89 179.45 170.97 177.64 170.99 175.84 170.93 174.02 170.93 172.21 171.08 170.4 170.94 168.59 170.93 166.78 171.12 164.96 171.03 163.14 171.11 161.32 170.88 159.58 170.4 158.25 169.15 157.66 167.38 157.8 167.38 158.13 165.53 159.49 164.2 161.32 163.63 163.13 163.78 164.95 163.76 166.76 163.82 168.56 163.79 170.38 163.7 172.19 163.64 174 163.78 175.81 163.65 177.62 163.81 179.44 163.72 181.26 163.74 183.07 163.78 184.83 164.33 186.32 165.5 186.75 167.38 186.79 167.38 186.2 169.18 184.95 170.63 183.07 171.08"/><polygon class="cls-6" points="144.65 231.91 142.79 232.04 140.93 232.04 139.06 231.86 137.2 231.75 135.34 231.79 133.48 231.88 131.61 231.87 129.75 231.82 127.89 231.78 126.02 231.8 124.16 231.97 122.29 231.93 120.42 231.95 118.55 231.97 116.92 231.5 115.52 230.58 114.53 229.21 114.28 227.55 114.17 227.55 114.47 225.86 115.54 224.53 116.83 223.41 118.55 223.32 120.41 223.33 122.27 223.12 124.14 223.15 126 223.23 127.86 223.25 129.72 223.16 131.59 223.27 133.45 223.22 135.31 223.16 137.18 223.15 139.04 223.29 140.91 223.16 142.78 223.2 144.65 223.28 146.31 223.53 147.79 224.41 148.58 225.92 148.88 227.55 149.05 227.55 148.66 229.21 147.75 230.65 146.34 231.63 144.65 231.91"/><polygon class="cls-6" points="157.7 150.79 155.87 150.65 154.05 150.8 152.22 150.77 150.4 150.59 148.57 150.69 146.75 150.64 144.92 150.76 143.09 150.59 141.27 150.63 139.44 150.68 137.61 150.55 135.78 150.75 133.95 150.85 132.13 150.57 130.3 150.65 128.47 150.79 126.64 150.7 124.81 150.72 122.98 150.7 121.16 150.61 119.32 150.81 117.49 150.64 115.65 150.74 113.83 150.51 112.16 149.7 110.9 148.35 110.08 146.71 109.74 144.9 110 144.9 110.19 143.13 110.97 141.5 112.2 140.15 113.89 139.47 115.65 139.24 117.48 139.05 119.3 139.04 121.13 139.23 122.95 139.2 124.78 139.21 126.6 139.09 128.43 139.11 130.25 139.23 132.08 139.03 133.91 139.03 135.74 139.12 137.57 138.97 139.4 138.96 141.22 139.24 143.05 139.15 144.88 139.21 146.71 139.21 148.53 139.14 150.37 139.05 152.19 139.03 154.03 139.04 155.86 139.17 157.7 139.24 159.52 139.28 161.13 140.18 162.46 141.44 163.23 143.1 163.41 144.9 163.42 144.9 163.34 146.73 162.35 148.28 161.18 149.7 159.54 150.55 157.7 150.79"/><polygon class="cls-6" points="142.84 181.96 140.99 181.8 139.15 182.02 137.3 182 135.45 181.88 133.61 181.89 131.76 181.79 129.91 181.98 128.06 181.88 126.22 181.78 124.37 181.95 122.52 181.96 120.67 181.74 118.82 181.93 116.98 181.77 115.13 181.93 113.28 181.83 111.43 181.83 109.58 181.96 107.72 181.98 105.86 181.93 103.95 181.59 102.31 180.6 100.91 179.31 99.96 177.63 99.75 175.71 99.73 175.71 99.98 173.8 100.83 172.06 102.22 170.69 103.97 169.89 105.86 169.56 107.71 169.61 109.55 169.63 111.4 169.49 113.25 169.45 115.09 169.43 116.94 169.61 118.79 169.65 120.64 169.62 122.48 169.64 124.33 169.64 126.18 169.45 128.03 169.48 129.88 169.49 131.72 169.62 133.57 169.69 135.42 169.52 137.27 169.68 139.13 169.68 140.98 169.62 142.84 169.64 144.74 169.87 146.53 170.62 147.73 172.16 148.81 173.77 148.87 175.71 148.92 175.71 148.6 177.59 147.94 179.42 146.47 180.71 144.73 181.54 142.84 181.96"/><polyline class="cls-9" points="91 185.37 92.85 185.4 94.7 185.49 96.55 185.47 98.4 185.39 100.25 185.41 102.11 185.59 103.96 185.46 105.81 185.42 107.66 185.64 109.51 185.47 111.36 185.37 113.21 185.42 115.07 185.37 116.92 185.36 118.77 185.53 120.63 185.53 122.49 185.65 124.35 185.65"/><polyline class="cls-9" points="98.25 178.13 100.06 178.3 101.87 178.26 103.68 178.27 105.49 178.15 107.3 178.29 109.11 178.39 110.92 178.24 112.73 178.3 114.54 178.37 116.35 178.22 118.16 178.38 119.98 178.33 121.79 178.21 123.6 178.26 125.42 178.19 127.22 178.17 129.04 178.25 130.85 178.33 132.66 178.39 134.48 178.39 136.29 178.15 138.11 178.16 139.93 178.27 141.75 178.31"/><polyline class="cls-5" points="120 192.84 121.86 192.81 123.72 192.85 125.58 192.82 127.44 192.83 129.31 192.81 131.17 192.82 133.03 192.74 134.9 192.8 136.76 192.76 138.62 192.89 140.49 192.63 142.35 192.89 144.21 192.87 146.08 192.68 147.94 192.71 149.81 192.86 151.67 192.75 153.54 192.76 155.41 192.62 157.28 192.88 159.15 192.67"/><polyline class="cls-9" points="111.3 200.11 113.07 200.03 114.84 200.09 116.61 200.03 118.38 199.89 120.15 199.9 121.92 199.94 123.69 199.91 125.47 200.05 127.25 199.95"/><polyline class="cls-9" points="167.85 158.01 166.01 157.97 164.18 157.81 162.34 157.96 160.51 157.86 158.67 158.08 156.84 157.91 155.01 157.93 153.17 157.97 151.34 158.1 149.5 157.87 147.66 158.01 145.83 157.87 143.99 158.06 142.14 157.85 140.3 157.88"/><polyline class="cls-9" points="160.6 150.6 158.74 150.69 156.88 150.63 155.01 150.59 153.15 150.71 151.29 150.82 149.42 150.65 147.55 150.84"/><polyline class="cls-9" points="167.85 213.12 166.07 213.13 164.28 213.1 162.5 213.16 160.72 213.04 158.94 213.06 157.15 213.19 155.37 213.04 153.59 213 151.8 213.09 150.02 212.92 148.23 213.11 146.44 213.11 144.65 213.04"/><polyline class="cls-9" points="173.65 204.37 171.84 204.35 170.03 204.26 168.22 204.25 166.4 204.34"/><polyline class="cls-9" points="93.9 169.62 95.75 169.4 97.6 169.43 99.45 169.56 101.3 169.51 103.15 169.6 105 169.5 106.86 169.64 108.71 169.56 110.56 169.51 112.41 169.43 114.26 169.67 116.11 169.57 117.97 169.66 119.82 169.49 121.67 169.47 123.53 169.69 125.39 169.63 127.25 169.45"/></g><polygon class="cls-5" points="177.99 185.5 177.84 187.34 177.72 189.18 177.55 191.01 177.35 192.85 177.11 194.69 176.75 196.5 176.07 198.23 175.44 199.97 174.87 201.72 174.02 203.37 173.41 205.12 172.57 206.77 171.51 208.29 170.65 209.94 169.55 211.43 168.24 212.75 167.22 214.3 165.87 215.57 164.7 217.01 163.22 218.13 161.73 219.23 160.39 220.52 158.84 221.52 157.25 222.45 155.68 223.41 154.1 224.39 152.37 225.03 150.7 225.81 148.99 226.51 147.26 227.16 145.49 227.69 143.68 228.07 141.86 228.43 140.03 228.69 138.2 228.98 136.35 229.07 134.5 228.87 132.66 228.88 130.82 228.74 128.97 228.71 127.13 228.49 125.36 227.91 123.54 227.6 121.77 227.07 120.03 226.44 118.33 225.74 116.52 225.27 114.97 224.24 113.27 223.5 111.74 222.47 110.17 221.5 108.57 220.56 107.11 219.42 105.66 218.26 104.32 216.99 103.15 215.54 101.73 214.33 100.61 212.86 99.58 211.32 98.58 209.78 97.33 208.38 96.55 206.69 95.64 205.09 94.92 203.39 94.22 201.69 93.41 200.02 92.96 198.22 92.38 196.47 91.88 194.69 91.68 192.84 91.27 191.04 91.29 189.18 90.95 187.35 90.89 185.5 91.17 183.66 91.23 181.81 91.4 179.98 91.58 178.14 91.91 176.32 92.3 174.51 92.85 172.74 93.48 171 94.13 169.27 94.87 167.59 95.62 165.89 96.52 164.28 97.5 162.72 98.49 161.16 99.44 159.56 100.77 158.26 101.88 156.79 103.11 155.41 104.33 154.02 105.77 152.85 107.17 151.65 108.6 150.47 110.16 149.47 111.7 148.47 113.23 147.42 114.94 146.69 116.55 145.79 118.3 145.19 120.04 144.57 121.74 143.84 123.52 143.33 125.31 142.85 127.12 142.48 128.97 142.35 130.8 142.08 132.66 142.11 134.5 142.05 136.35 141.89 138.19 142.16 140.02 142.38 141.88 142.48 143.68 142.93 145.5 143.26 147.25 143.89 149 144.45 150.76 145.04 152.41 145.88 154.11 146.61 155.79 147.4 157.36 148.38 158.85 149.48 160.34 150.56 161.83 151.65 163.17 152.93 164.57 154.13 165.81 155.5 167.24 156.69 168.31 158.2 169.4 159.69 170.6 161.1 171.47 162.74 172.58 164.23 173.29 165.95 174.23 167.54 174.74 169.33 175.51 171.01 175.99 172.79 176.48 174.57 176.89 176.36 177.26 178.16 177.66 179.97 177.74 181.82 177.98 183.65 177.99 185.5"/><polyline class="cls-5" points="333.14 83.14 334.08 84.84 334.2 86.77 332.51 86.66 331.01 85.85 329.65 84.84 328.34 83.77 326.95 82.76 325.76 81.54 324.68 80.21 323.58 78.93 322.4 77.69 321.48 76.26 320.68 74.77 320.67 73.23 322.2 73.26 323.76 73.95"/><polygon class="cls-5" points="332.09 83.85 330.83 85.06 329.23 85.77 327.5 86.01 325.79 85.74 324.19 85.12 322.78 84.12 321.84 82.68 320.99 81.15 320.86 79.4 321.26 77.71 321.86 76.08 323.06 74.82 324.28 73.57 325.94 73.01 327.63 72.58 329.33 73 330.95 73.55 332.35 74.55 333.26 76 333.93 77.56 334.08 79.26 333.89 80.96 333.32 82.61 332.09 83.85"/><polygon class="cls-11" points="261.4 46.84 260.01 47.77 258.51 48.57 256.8 48.65 255.16 48.19 253.7 47.48 254.16 48.97 255.29 50.15 256.78 51.22 258.52 51.79 260.36 51.84 262.2 51.44 263.75 50.34 264.67 48.69 265.44 46.98 265.26 45.11 264.75 43.34 263.74 41.76 263.08 41.24 263.2 43.26 262.56 45.19 261.4 46.84"/><polygon class="cls-5" points="261.4 46.84 260.01 47.77 258.51 48.57 256.8 48.65 255.16 48.19 253.7 47.48 254.16 48.97 255.29 50.15 256.78 51.22 258.52 51.79 260.36 51.84 262.2 51.44 263.75 50.34 264.67 48.69 265.44 46.98 265.26 45.11 264.75 43.34 263.74 41.76 263.08 41.24 263.2 43.26 262.56 45.19 261.4 46.84"/><polygon class="cls-9" points="53.95 183 53.39 184.39 52 185.1 50.61 184.39 50.01 183 50.54 181.54 52 181.09 53.48 181.52 53.95 183"/><polygon class="cls-9" points="53.86 113 53.48 114.48 52 115.02 50.53 114.47 49.85 113 50.59 111.59 52 110.98 53.35 111.65 53.86 113"/><polygon class="cls-9" points="22.93 214 22.5 215.5 21 215.97 19.63 215.37 19.12 214 19.63 212.63 21 212.1 22.51 212.49 22.93 214"/><polygon class="cls-9" points="113.03 33 112.36 34.36 111 34.88 109.63 34.37 109.09 33 109.59 31.59 111 31.13 112.39 31.61 113.03 33"/><polygon class="cls-9" points="322.9 188 322.47 189.47 321 189.96 319.57 189.43 319.07 188 319.55 186.55 321 185.88 322.41 186.59 322.9 188"/><polygon class="cls-9" points="192.86 143 192.37 144.37 191 145.09 189.52 144.48 189.03 143 189.69 141.69 191 141.02 192.51 141.49 192.86 143"/><polygon class="cls-9" points="176.92 60 176.34 61.34 175 62.02 173.56 61.44 172.99 60 173.61 58.61 175 58.02 176.33 58.67 176.92 60"/><polygon class="cls-9" points="72.97 63 72.47 64.47 71 65.01 69.61 64.39 69.07 63 69.57 61.57 71 61.02 72.52 61.48 72.97 63"/><polygon class="cls-9" points="353.13 86 352.4 87.4 351 87.86 349.63 87.37 348.96 86 349.65 84.65 351 83.87 352.41 84.59 353.13 86"/><polygon class="cls-9" points="332.86 143 332.44 144.44 331 145.02 329.61 144.39 329.04 143 329.49 141.49 331 141.04 332.51 141.49 332.86 143"/><polygon class="cls-9" points="373.11 188 372.42 189.42 371 190.04 369.65 189.34 369.14 188 369.55 186.55 371 185.98 372.39 186.61 373.11 188"/><polygon class="cls-9" points="42.91 33 42.47 34.47 41 35.06 39.56 34.44 39.08 33 39.48 31.48 41 31.14 42.37 31.63 42.91 33"/><polygon class="cls-9" points="298.04 98 297.35 99.35 296 99.91 294.66 99.34 294.11 98 294.59 96.59 296 96.02 297.36 96.64 298.04 98"/><polygon class="cls-9" points="327.94 31 327.31 32.31 326 33.12 324.52 32.48 324.14 31 324.55 29.55 326 29.03 327.47 29.53 327.94 31"/><polygon class="cls-9" points="263.06 155 262.44 156.44 261 156.91 259.58 156.42 259.15 155 259.57 153.57 261 153.07 262.39 153.61 263.06 155"/><path class="cls-11" d="M204,71.19l0.18-1.88,0.13-1.75,0.2-1.74,0.26-1.74,0.61-1.64,0.58-1.6,0.91-1.44,1-1.34,1-1.41,1-1.37,1.38-1.08,1.17-1.27,1.07-1.37,1.24-1.21,1.36-1.1,1-1.4,0.93-1.46,0.78-1.55,0.67-1.61,0.12-1.74,0.16-1.71,0-2-0.53-2-0.63-2-1.36-1.53L215.71,31l-1.81-.85L212,29.67l-2-.32-2,.12-1.94.65-1.95.6L202.45,32l-1.3,1.33-1,1.59-0.39,1.84-0.21,1.91-1.72-.1-1.7,0-1.71.18h-1.71l-1.73,0,0.18-2,0.31-1.91L192,32.91l0.88-1.73,0.79-1.79,1.25-1.51,1.48-1.27,1.38-1.22,1.65-.83,1.55-1L202.7,23l1.74-.63,1.85-.07,1.82-.25,1.84-.1,1.83,0.2,1.83,0.11,1.8,0.34,1.8,0.38L219,23.54l1.66,0.83,1.54,1,1.4,1.21,1.16,1.34,1,1.43,0.8,1.57,0.65,1.63,0.65,1.64L228.15,36l0.06,1.76,0,1.76,0.06,1.8L228,43.06l-0.43,1.74-0.7,1.66-0.68,1.66-0.77,1.63-1,1.47-1.1,1.43L222.11,54l-1.2,1.34-1.2,1.3-1.26,1.24L217.09,59l-1.1,1.4-1.24,1.44-0.89,1.7-0.64,1.8-0.31,1.89-0.34,1.89,0,2-1.73,0-1.7,0-1.71,0-1.71,0ZM203.5,85.71L204,83.86l1-1.61,1.67-1.11,2-.38,2,0.42,1.77,1,0.93,1.66,0.22,1.87-0.18,1.86-0.89,1.69-1.87.89-2,.34-2.07-.11-1.75-1.14L204,87.53Z"/><path class="cls-5" d="M204,71.19l0.18-1.88,0.13-1.75,0.2-1.74,0.26-1.74,0.61-1.64,0.58-1.6,0.91-1.44,1-1.34,1-1.41,1-1.37,1.38-1.08,1.17-1.27,1.07-1.37,1.24-1.21,1.36-1.1,1-1.4,0.93-1.46,0.78-1.55,0.67-1.61,0.12-1.74,0.16-1.71,0-2-0.53-2-0.63-2-1.36-1.53L215.71,31l-1.81-.85L212,29.67l-2-.32-2,.12-1.94.65-1.95.6L202.45,32l-1.3,1.33-1,1.59-0.39,1.84-0.21,1.91-1.72-.1-1.7,0-1.71.18h-1.71l-1.73,0,0.18-2,0.31-1.91L192,32.91l0.88-1.73,0.79-1.79,1.25-1.51,1.48-1.27,1.38-1.22,1.65-.83,1.55-1L202.7,23l1.74-.63,1.85-.07,1.82-.25,1.84-.1,1.83,0.2,1.83,0.11,1.8,0.34,1.8,0.38L219,23.54l1.66,0.83,1.54,1,1.4,1.21,1.16,1.34,1,1.43,0.8,1.57,0.65,1.63,0.65,1.64L228.15,36l0.06,1.76,0,1.76,0.06,1.8L228,43.06l-0.43,1.74-0.7,1.66-0.68,1.66-0.77,1.63-1,1.47-1.1,1.43L222.11,54l-1.2,1.34-1.2,1.3-1.26,1.24L217.09,59l-1.1,1.4-1.24,1.44-0.89,1.7-0.64,1.8-0.31,1.89-0.34,1.89,0,2-1.73,0-1.7,0-1.71,0-1.71,0ZM203.5,85.71L204,83.86l1-1.61,1.67-1.11,2-.38,2,0.42,1.77,1,0.93,1.66,0.22,1.87-0.18,1.86-0.89,1.69-1.87.89-2,.34-2.07-.11-1.75-1.14L204,87.53Z"/><circle class="cls-12" cx="46" cy="144" r="7"/><circle class="cls-12" cx="348" cy="165" r="5"/></svg>